<svg xmlns="http://www.w3.org/2000/svg" width="34" height="31.001" viewBox="0 0 34 31.001">
  <g id="logo" transform="translate(36.5 -7.501)">
    <path id="패스_32" data-name="패스 32" d="M5.6,2.823H9.655v8.035H5.6ZM0,0V2.823H2.165v8.035H.032V13.68H15.253V10.858H13.088V2.823h2.165V0Z" transform="translate(-36 8)" fill="#00a1ed" stroke="rgba(0,0,0,0)" stroke-width="1"/>
    <path id="패스_33" data-name="패스 33" d="M127.975.088V2.91h11.873V13.764h3.381V.088Z" transform="translate(-146.229 7.926)" stroke="rgba(0,0,0,0)" stroke-width="1"/>
    <path id="패스_34" data-name="패스 34" d="M.229,113.725v2.795H12.191v2.526H.255v8.331l15.2.023v-2.875L3.505,124.5V121.84H15.442v-8.116Z" transform="translate(-36.197 -89.428)" stroke="rgba(0,0,0,0)" stroke-width="1"/>
    <path id="패스_35" data-name="패스 35" d="M128.177,113.927v2.795H140.14v2.526H128.2v8.331l15.2.024v-2.875l-11.945-.024v-2.661h11.937v-8.116Z" transform="translate(-146.403 -89.601)" stroke="rgba(0,0,0,0)" stroke-width="1"/>
  </g>
</svg>
