<svg xmlns="http://www.w3.org/2000/svg" width="54.57" height="48.009" viewBox="0 0 54.57 48.009">
  <g id="F_Logo" transform="translate(0 -0.001)">
    <path id="패스_36" data-name="패스 36" d="M9.257,4.517h6.709V17.375H9.257ZM0,0V4.517H3.581V17.375H.053v4.516H25.224V17.375H21.643V4.517h3.581V0Z" fill="#fff"/>
    <path id="패스_37" data-name="패스 37" d="M127.975.088V4.6h19.634V21.974H153.2V.088Z" transform="translate(-98.629 -0.067)" fill="#fff"/>
    <path id="패스_38" data-name="패스 38" d="M.229,113.725V118.2H20.011v4.042H.271v13.332l25.129.037v-4.6L5.647,130.97v-4.258h19.74V113.725Z" transform="translate(-0.176 -87.646)" fill="#fff"/>
    <path id="패스_39" data-name="패스 39" d="M128.177,113.927V118.4H147.96v4.043H128.22v13.332l25.129.038v-4.6l-19.753-.038v-4.258h19.74V113.927Z" transform="translate(-98.785 -87.802)" fill="#fff"/>
  </g>
</svg>
